<?xml version="1.0" standalone="no"?><svg xmlns="http://www.w3.org/2000/svg" viewBox="0 0 1440 320"><path fill="#111111" fill-opacity="1" d="M0,224L40,213.3C80,203,160,181,240,186.7C320,192,400,224,480,213.3C560,203,640,149,720,154.7C800,160,880,224,960,245.3C1040,267,1120,245,1200,213.3C1280,181,1360,139,1400,117.3L1440,96L1440,320L1400,320C1360,320,1280,320,1200,320C1120,320,1040,320,960,320C880,320,800,320,720,320C640,320,560,320,480,320C400,320,320,320,240,320C160,320,80,320,40,320L0,320Z"></path></svg>